<svg xmlns="http://www.w3.org/2000/svg" width="24" height="24" viewBox="0 0 24 24" fill="currentColor"><path d="M12 2.163c3.204 0 3.584.012 4.85.07 1.17.054 1.805.249 2.227.412.56.216.96.474 1.38.894.42.42.678.82.894 1.38.163.422.358 1.057.412 2.227.058 1.266.07 1.646.07 4.85s-.012 3.584-.07 4.85c-.054 1.17-.249 1.805-.412 2.227-.216.56-.474.96-.894 1.38-.42.42-.82.678-1.38.894-.422.163-1.057.358-2.227.412-1.266.058-1.646.07-4.85.07s-3.584-.012-4.85-.07c-1.17-.054-1.805-.249-2.227-.412-.56-.216-.96-.474-1.38-.894-.42-.42-.678-.82-.894-1.38-.163-.422-.358-1.057-.412-2.227-.058-1.266-.07-1.646-.07-4.85s.012-3.584.07-4.85c.054-1.17.249-1.805.412-2.227.216-.56.474-.96.894-1.38.42-.42.82-.678 1.38-.894.422-.163 1.057-.358 2.227-.412 1.266-.058 1.646-.07 4.85-.07m0-2.163c-3.259 0-3.667.014-4.947.072-1.277.057-2.148.258-2.911.556-.788.306-1.457.715-2.122 1.38-.665.665-1.074 1.334-1.38 2.122-.298.763-.499 1.634-.556 2.911-.058 1.28-.072 1.688-.072 4.947s.014 3.667.072 4.947c.057 1.277.258 2.148.556 2.911.306.788.715 1.457 1.38 2.122.665.665 1.334 1.074 2.122 1.38.763.298 1.634.499 2.911.556 1.28.058 1.688.072 4.947.072s3.667-.014 4.947-.072c1.277-.057 2.148-.258 2.911-.556.788-.306 1.457-.715 2.122-1.38.665-.665 1.074-1.334 1.38-2.122.298-.763.499-1.634.556-2.911.058-1.28.072-1.688.072-4.947s-.014-3.667-.072-4.947c-.057-1.277-.258-2.148-.556-2.911-.306-.788-.715-1.457-1.38-2.122-.665-.665-1.334-1.074-2.122-1.38-.763-.298-1.634-.499-2.911-.556-1.28-.058-1.688-.072-4.947-.072z"/><path d="M12 5.838c-3.403 0-6.162 2.759-6.162 6.162s2.759 6.162 6.162 6.162 6.162-2.759 6.162-6.162-2.759-6.162-6.162-6.162zm0 10.162c-2.209 0-4-1.791-4-4s1.791-4 4-4 4 1.791 4 4-1.791 4-4 4zm6.406-11.845c-.796 0-1.441.645-1.441 1.44s.645 1.44 1.441 1.44c.795 0 1.439-.645 1.439-1.44s-.644-1.44-1.439-1.44z"/></svg>
