<svg xmlns="http://www.w3.org/2000/svg" width="24" height="24" viewBox="0 0 24 24" fill="currentColor"><path d="M12 0A12 12 0 0 0 0 12a12 12 0 0 0 12 12 12 12 0 0 0 12-12A12 12 0 0 0 12 0zm5.01 4.744c.688 0 1.25.561 1.25 1.249a1.25 1.25 0 0 1-2.498.051l-2.597-.547-.8 3.747c1.824.07 3.48.632 4.674 1.488.308-.309.73-.491 1.207-.491.968 0 1.754.786 1.754 1.754 0 .716-.435 1.333-1.056 1.597.012.103.018.208.018.314 0 2.419-2.75 4.381-6.14 4.381-3.39 0-6.14-1.962-6.14-4.381 0-.103.005-.203.016-.303A1.754 1.754 0 0 1 4.03 11.99c0-.968.786-1.754 1.754-1.754.463 0 .875.18 1.179.471 1.187-.858 2.835-1.434 4.662-1.515l.911-4.274a.125.125 0 0 1 .141-.099l2.96.624c.021-.422.367-.756.793-.756zm-9.01 7.246c-.69 0-1.25.56-1.25 1.25s.56 1.25 1.25 1.25 1.25-.56 1.25-1.25-.56-1.25-1.25-1.25zm8.001 0c-.69 0-1.25.56-1.25 1.25s.56 1.25 1.25 1.25 1.25-.56 1.25-1.25-.56-1.25-1.25-1.25zm-4.001 3.917a.125.125 0 0 0-.092.211c.493.492 1.284.76 2.091.76.808 0 1.598-.268 2.091-.76a.125.125 0 0 0-.184-.17c-.4.4-.991.638-1.907.638-.916 0-1.506-.238-1.907-.638a.125.125 0 0 0-.092-.041z"/></svg>
