<svg xmlns="http://www.w3.org/2000/svg" width="24" height="24" viewBox="0 0 24 24" fill="currentColor"><path d="M1.16 13.52c-.08 0-.16.08-.16.16v2.16c0 .08.08.16.16.16.08 0 .16-.08.16-.16v-2.16c0-.08-.08-.16-.16-.16zm.96-1.12c-.08 0-.16.08-.16.16v4.4c0 .08.08.16.16.16.08 0 .16-.08.16-.16v-4.4c0-.08-.08-.16-.16-.16zm.96-1.12c-.08 0-.16.08-.16.16v6.64c0 .08.08.16.16.16.08 0 .16-.08.16-.16v-6.64c0-.08-.08-.16-.16-.16zm.96.48c-.08 0-.16.08-.16.16v6.16c0 .08.08.16.16.16.08 0 .16-.08.16-.16v-6.16c0-.08-.08-.16-.16-.16zm.96.64c-.08 0-.16.08-.16.16v5.52c0 .08.08.16.16.16.08 0 .16-.08.16-.16v-5.52c0-.08-.08-.16-.16-.16zm.96-1.44c-.08 0-.16.08-.16.16v6.96c0 .08.08.16.16.16.08 0 .16-.08.16-.16v-6.96c0-.08-.08-.16-.16-.16zm.96-.96c-.08 0-.16.08-.16.16v7.92c0 .08.08.16.16.16.08 0 .16-.08.16-.16v-7.92c0-.08-.08-.16-.16-.16zm.96.48c-.08 0-.16.08-.16.16v7.44c0 .08.08.16.16.16.08 0 .16-.08.16-.16v-7.44c0-.08-.08-.16-.16-.16zm.96-1.44c-.08 0-.16.08-.16.16v8.88c0 .08.08.16.16.16.08 0 .16-.08.16-.16v-8.88c0-.08-.08-.16-.16-.16zm.96-.96c-.08 0-.16.08-.16.16v9.84c0 .08.08.16.16.16.08 0 .16-.08.16-.16v-9.84c0-.08-.08-.16-.16-.16zm.96.48c-.08 0-.16.08-.16.16v9.36c0 .08.08.16.16.16.08 0 .16-.08.16-.16v-9.36c0-.08-.08-.16-.16-.16zm.96-.8c-.08 0-.16.08-.16.16v10.16c0 .08.08.16.16.16.08 0 .16-.08.16-.16v-10.16c0-.08-.08-.16-.16-.16zm.96-.8c-.08 0-.16.08-.16.16v10.96c0 .08.08.16.16.16.08 0 .16-.08.16-.16v-10.96c0-.08-.08-.16-.16-.16zm.96.64c-.08 0-.16.08-.16.16v10.32c0 .08.08.16.16.16.08 0 .16-.08.16-.16v-10.32c0-.08-.08-.16-.16-.16zm.96.16c-.08 0-.16.08-.16.16v10.16c0 .08.08.16.16.16.08 0 .16-.08.16-.16v-10.16c0-.08-.08-.16-.16-.16zm.96.16c-.08 0-.16.08-.16.16v10c0 .08.08.16.16.16.08 0 .16-.08.16-.16v-10c0-.08-.08-.16-.16-.16zm1.12-1.92c-.08 0-.16.08-.16.16v12c0 .08.08.16.16.16.08 0 .16-.08.16-.16v-12c0-.08-.08-.16-.16-.16zm.96.16c-.08 0-.16.08-.16.16v11.84c0 .08.08.16.16.16.08 0 .16-.08.16-.16v-11.84c0-.08-.08-.16-.16-.16zm1.12 1.6c0-2.4 1.92-4.32 4.32-4.32.4 0 .8.08 1.12.16.32-1.92 2-3.36 4-3.36 2.24 0 4.08 1.84 4.08 4.08 0 .08 0 .16-.08.24 1.68.56 2.88 2.16 2.88 4 0 2.32-1.84 4.16-4.16 4.16H16.8c-.08 0-.16-.08-.16-.16v-11.84c0-.08.08-.16.16-.16.08 0 .16.08.16.16v11.84h6.08c1.84 0 3.36-1.52 3.36-3.36s-1.52-3.36-3.36-3.36c-.4 0-.8.08-1.12.24-.08.08-.16.08-.24 0-.08-.08-.08-.16-.08-.24.08-.48.16-.96.16-1.44 0-1.84-1.52-3.36-3.36-3.36s-3.36 1.52-3.36 3.36c0 .48.08.96.24 1.44 0 .08 0 .16-.08.24-.08.08-.16.08-.24 0-.32-.16-.72-.24-1.12-.24-1.92 0-3.52 1.6-3.52 3.52 0 .48.08.96.24 1.44 0 .08 0 .16-.08.24-.08.08-.16.08-.24 0-.48-.32-1.04-.48-1.6-.48-1.84 0-3.36 1.52-3.36 3.36 0 .4.08.8.24 1.12.08.08.08.16 0 .24-.08.08-.16.08-.24 0-.4-.32-.64-.8-.64-1.28z"/></svg>
