<svg xmlns="http://www.w3.org/2000/svg" width="24" height="24" viewBox="0 0 24 24" fill="currentColor"><path d="M12.525.02c1.31-.036 2.612.012 3.914.012.041 1.56.265 3.127.695 4.641.517.069 1.031.144 1.552.226.461.01.922.011 1.383.033V8.96c-1.01-.051-2.015-.192-3.003-.428-.091 2.36-.103 4.724-.032 7.084.05 1.02.11 2.04.47 3.01.31.78.82 1.5 1.48 2.06.71.58 1.56.99 2.47 1.2.96.22 1.96.22 2.94.1 1.03-.11 2.03-.44 2.94-.97.9-.51 1.66-1.25 2.18-2.14.51-.88.76-1.86.74-2.87.01-1.16-.27-2.3-.81-3.32-.54-1.01-1.31-1.88-2.23-2.51-.46-.31-.95-.57-1.46-.77V4.55c.85.13 1.68.36 2.48.68 1.05.42 2.01 1.03 2.84 1.81 1.1 1.05 1.9 2.37 2.32 3.82.45 1.61.54 3.3.26 4.96-.28 1.67-.93 3.25-1.91 4.63-1.15 1.61-2.71 2.91-4.51 3.73-1.28.58-2.64.93-4.04 1.03-1.02.07-2.05.02-3.06-.15-1.15-.19-2.27-.57-3.3-1.13-1.21-.66-2.29-1.54-3.15-2.6-.85-1.07-1.48-2.29-1.82-3.6-.39-1.48-.46-3.03-.21-4.54.24-1.49.79-2.91 1.61-4.17.72-1.1 1.64-2.05 2.72-2.81 1.08-.76 2.31-1.31 3.63-1.61 1.42-.33 2.9-.39 4.35-.18V.02z"/></svg>
