<svg xmlns="http://www.w3.org/2000/svg" width="24" height="24" viewBox="0 0 24 24" fill="currentColor"><path d="M22.396 4.32a8.015 8.015 0 0 0-2.525-.595c-1.512-.117-2.834.18-3.903.88-1.012.677-1.74 1.745-2.125 3.047-.344 1.12-.374 2.235-.093 3.327.28 1.139.905 2.107 1.802 2.77.88.654 1.975.935 3.127.81 1.305-.14 2.435-.742 3.263-1.745.827-1.004 1.205-2.25 1.04-3.565-.16-1.312-.73-2.435-1.586-3.23a4.756 4.756 0 0 0-1.04-.79c.04-.04.08-.08.12-.12.37-.37.74-.74 1.11-1.11.37-.37.74-.74 1.11-1.11-.2-.2-.4-.4-.6-.6z"/></svg>
